{"title":"24 2016 TAMiL HDRip x264 AC3 -TmG","uid":14814643,"size":1553261661,"categoryP":"video","categoryS":"movies","magnet":"?xt=urn:btih:f81c65e8bdbafbaaa30216df952733de5ba807f1&amp;dn=24+2016+TAMiL+HDRip+x264+AC3+-TmG&amp;tr=udp%3A%2F%2Ftracker.leechers-paradise.org%3A6969&amp;tr=udp%3A%2F%2Fzer0day.ch%3A1337&amp;tr=udp%3A%2F%2Fopen.demonii.com%3A1337&amp;tr=udp%3A%2F%2Ftracker.coppersurfer.tk%3A6969&amp;tr=udp%3A%2F%2Fexodus.desync.com%3A6969","seeders":1,"leechers":1,"uploader":"CDRiPD","files":2,"time":1465226354,"description":"24 2016 TAMiL HDRip x264 AC3 -TmG\r\n\r\n\r\nFormat                                   : Matroska\r\nFormat version                           : Version 2\r\nFile size                                : 1.45 GiB\r\nDuration                                 : 2h 21mn\r\nOverall bit rate                         : 1 464 Kbps\r\n\r\nVideo\r\nID                                       : 1\r\nFormat                                   : AVC\r\nFormat/Info                              : Advanced Video Codec\r\nFormat profile                           :   \r\nFormat settings, CABAC                   : Yes\r\nFormat settings, ReFrames                : 4 frames\r\nMuxing mode                              : Header stripping\r\nCodec ID                                 : V_MPEG4/ISO/AVC\r\nDuration                                 : 2h 21mn\r\nBit rate                                 : 1 271 Kbps\r\nWidth                                    : 720 pixels\r\nHeight                                   : 304 pixels\r\nDisplay aspect ratio                     : 2.35:1\r\nFrame rate mode                          : Constant\r\nFrame rate                               : 25.000 fps\r\nColor space                              : YUV\r\nChroma subsampling                       : 4:2:0\r\nBit depth                                : 8 bits\r\nScan type                                : Progressive\r\nBits/(Pixel*Frame)                       : 0.232\r\nStream size                              : 1.23 GiB (85%)\r\nTitle                                    : 24 @ tmghub.org\r\nWriting library                          : x264 core 146 r2538 121396c\r\n\r\nAudio\r\nID                                       : 2\r\nFormat                                   : AC-3\r\nFormat/Info                              : Audio Coding 3\r\nMode extension                           : CM (complete main)\r\nFormat settings, Endianness              : Big\r\nMuxing mode                              : Header stripping\r\nCodec ID                                 : A_AC3\r\nDuration                                 : 2h 21mn\r\nBit rate mode                            : Constant\r\nBit rate                                 : 192 Kbps\r\nChannel(s)                               : 2 channels\r\nChannel positions                        : Front: L R\r\nSampling rate                            : 48.0 KHz\r\nBit depth                                : 16 bits\r\nCompression mode                         : Lossy\r\nStream size                              : 194 MiB (13%)\r\nTitle                                    : AC3 Stereo @ TmG\r\nLanguage                                 : Tamil\r\n\r\n\r\nScreen Shots:\r\n\r\n\r\n \nhttps://ititli.com/XRk \nhttps://ititli.com/XRo \nhttps://ititli.com/XRG \nhttps://ititli.com/XRH \nhttps://ititli.com/XRM \nhttps://ititli.com/XRU \nhttps://ititli.com/XRh \nhttps://ititli.com/XRs \nhttps://ititli.com/XRY \nhttps://ititli.com/XR4 \nhttps://ititli.com/XRK \nhttps://ititli.com/XRV \nhttps://ititli.com/XRt \nhttps://ititli.com/XRL \nhttps://ititli.com/XRd","torrent":{"xt":"urn:btih:f81c65e8bdbafbaaa30216df952733de5ba807f1","amp;dn":"24+2016+TAMiL+HDRip+x264+AC3+-TmG","amp;tr":["udp%3A%2F%2Ftracker.leechers-paradise.org%3A6969","udp%3A%2F%2Fzer0day.ch%3A1337","udp%3A%2F%2Fopen.demonii.com%3A1337","udp%3A%2F%2Ftracker.coppersurfer.tk%3A6969","udp%3A%2F%2Fexodus.desync.com%3A6969"],"infoHash":"f81c65e8bdbafbaaa30216df952733de5ba807f1","infoHashBuffer":{"type":"Buffer","data":[248,28,101,232,189,186,251,170,163,2,22,223,149,39,51,222,91,168,7,241]},"announce":[],"urlList":[]}}